# xmcd CD database file
#
# Track frame offsets:
#	150
#	18495
#	39156
#	55271
#	72445
#	87875
#	109001
#	126180
#	148198
#	167840
#	193387
#	210334
#	236145
#
# Disc length: 3384 seconds
#
# Revision: 1
# Processed by: cddbd v1.5.2PL0 Copyright (c) Steve Scherf et al.
# Submitted via: jetAudio 7
#
DISCID=bb0d360d
DTITLE=Leavin - Natalie COLE
DYEAR=2006
DGENRE=Jazz
TTITLE0=CRIMINAL(Flona Apple)
TTITLE1=OLD MAN(Neil Young)
TTITLE2=DAY DREAMING(Aretha Franklin)
TTITLE3=LEAVIN'(Shelby Lynne)
TTITLE4=THE MORE YOU DO IT(THE MORE I LIKE IT DONE TO ME)(Maqrvin Yancy
TTITLE4=Chuck Jackson)
TTITLE5=LOVIN' ARMS(Tom Jans)
TTITLE6=LOVE LETTER(Bannie Hayes)
TTITLE7=THE MAN WITH THE CHILD IN HIS EYES(Kate Bush)
TTITLE8=5 MINUTES AWAY(Natalie Cole-Dallas Austin-Marvin Chanz Parkman)
TTITLE9=DON'T SAY GOODNIGHT(IT'S TIME FOR LOVE)(Isley Brothers)
TTITLE10=YOU GOTTA BE(Des'ree Weekes-Ashley Ingram)
TTITLE11=IF I EVER LOSE MY FAITH IN YOU(Sting)
TTITLE12=I THINK IT'S GOING TO RAIN TODAY(Randy Newman)(BONUS TRACK)
EXTD=YEAR: 20061206
EXTT0=
EXTT1=
EXTT2=
EXTT3=
EXTT4=
EXTT5=
EXTT6=
EXTT7=
EXTT8=
EXTT9=
EXTT10=
EXTT11=
EXTT12=
PLAYORDER=
